<svg xmlns="http://www.w3.org/2000/svg" viewBox="0 0 48 48"><linearGradient id="prefix__a" x1="24" x2="24" y1="32" y2="24" gradientUnits="userSpaceOnUse"><stop offset="0" stop-color="#f282ff"/><stop offset="0" stop-color="#c948db"/><stop offset=".796" stop-color="#5c005e"/></linearGradient><path fill="url(#prefix__a)" d="M24 24C7 24 4 27.5 4 27.5 4 29.985 14.611 32 24 32s20-2.015 20-4.5c0 0-3-3.5-20-3.5z"/><path fill="#a600ab" d="M24 24.5c14.459 0 18.662 2.572 19.465 3.192C42.837 29.421 33.947 31.5 24 31.5c-9.945 0-18.833-2.078-19.464-3.807C5.353 27.063 9.567 24.5 24 24.5m0-.5C7 24 4 27.5 4 27.5 4 29.985 14.611 32 24 32s20-2.015 20-4.5c0 0-3-3.5-20-3.5z"/><radialGradient id="prefix__b" cx="41.124" cy="-56.351" r="25.175" gradientTransform="matrix(.9517 0 0 .5621 -15.137 78.194)" gradientUnits="userSpaceOnUse"><stop offset=".002" stop-color="#ea80fc"/><stop offset=".655" stop-color="#8a2891"/><stop offset=".979" stop-color="#5e0061"/></radialGradient><path fill="url(#prefix__b)" d="M7 46h34c0-5.596-4.613-10.133-10.303-10.133H17.303C11.613 35.867 7 40.404 7 46z"/><linearGradient id="prefix__c" x1="24.001" x2="24.001" y1="45.361" y2="37.707" gradientUnits="userSpaceOnUse"><stop offset=".002" stop-color="#ab47bc"/><stop offset=".004" stop-color="#ab47bc"/><stop offset="1" stop-color="#7b1fa2"/></linearGradient><path fill="url(#prefix__c)" d="M17.499 38.5c-.38-.748.189-3.097 1.608-3.232 3.237-.335 6.628-.46 9.749.023 1.472.298 2.028 2.668 1.643 3.208-1.533 1.69-5.044 5.287-6.156 6.36a.493.493 0 01-.69.002c-1.066-1.017-4.344-4.358-6.154-6.361z"/><linearGradient id="prefix__d" x1="-50.803" x2="-62.57" y1="1198.733" y2="1192.017" gradientTransform="matrix(1 0 0 .9876 92.647 -1145.866)" gradientUnits="userSpaceOnUse"><stop offset="0" stop-color="#c69c6d"/><stop offset=".165" stop-color="#aa8054"/><stop offset=".337" stop-color="#946a40"/><stop offset=".447" stop-color="#8c6239"/><stop offset=".999" stop-color="#331604"/></linearGradient><path fill="url(#prefix__d)" d="M35.18 26.237s-.133 3.938 1.876 8.57c.694 1.292-.187 1.819-.187 1.819s-6.394 2.505-13.095 2.268V21.07l11.259 2.017.147 3.15z"/><linearGradient id="prefix__e" x1="-2369.558" x2="-2358.389" y1="1188.832" y2="1183.352" gradientTransform="matrix(-1 0 0 1 -2328.25 -1152)" gradientUnits="userSpaceOnUse"><stop offset="0" stop-color="#c69c6d"/><stop offset=".165" stop-color="#aa8054"/><stop offset=".337" stop-color="#946a40"/><stop offset=".447" stop-color="#8c6239"/><stop offset=".999" stop-color="#331604"/></linearGradient><path fill="url(#prefix__e)" d="M34.606 35.702c.507-.267.574-.68-.027-1.882-1.774-4.432-1.535-7.422-1.548-8.49l.024-2.597 1.978.354.147 3.15s-.133 3.938 1.876 8.57c.694 1.292-.187 1.819-.187 1.819s-6.394 2.505-13.095 2.268c0-.324.326-.306.326-.936 5.631-.352 10.506-2.256 10.506-2.256z"/><linearGradient id="prefix__f" x1="-2369.584" x2="-2358.385" y1="1188.853" y2="1183.359" gradientTransform="matrix(-1 0 0 1 -2328.25 -1152)" gradientUnits="userSpaceOnUse"><stop offset="0" stop-color="#b78e60"/><stop offset=".133" stop-color="#a47a4f"/><stop offset=".325" stop-color="#8e643b"/><stop offset=".447" stop-color="#865c34"/><stop offset=".999" stop-color="#391b06"/></linearGradient><path fill="url(#prefix__f)" d="M34.843 35.772c.435-.229.61-.616-.004-1.831-1.808-4.461-1.571-7.621-1.583-8.535l.002-2.637 1.775.318.151 3.022s-.129 4.015 1.881 8.647c.697 1.294-.12 1.875-.219 1.913 0 0-6.367 2.483-13.069 2.245 0-.292.276-.315.276-.874 5.747-.296 10.79-2.268 10.79-2.268z"/><linearGradient id="prefix__g" x1="-2369.609" x2="-2358.383" y1="1188.874" y2="1183.366" gradientTransform="matrix(-1 0 0 1 -2328.25 -1152)" gradientUnits="userSpaceOnUse"><stop offset="0" stop-color="#a97f53"/><stop offset=".091" stop-color="#9d7449"/><stop offset=".308" stop-color="#875e35"/><stop offset=".447" stop-color="#7f562e"/><stop offset=".999" stop-color="#402008"/></linearGradient><path fill="url(#prefix__g)" d="M35.079 35.843c.362-.19.646-.552.019-1.779-1.841-4.489-1.608-7.818-1.617-8.582l-.021-2.677 1.573.282.155 2.895s-.125 4.093 1.886 8.724c.699 1.297-.054 1.932-.251 2.006 0 0-6.34 2.461-13.041 2.223 0-.26.225-.324.225-.813 5.861-.239 11.072-2.279 11.072-2.279z"/><linearGradient id="prefix__h" x1="-2369.636" x2="-2358.38" y1="1188.897" y2="1183.375" gradientTransform="matrix(-1 0 0 1 -2328.25 -1152)" gradientUnits="userSpaceOnUse"><stop offset="0" stop-color="#9a7146"/><stop offset=".025" stop-color="#976f44"/><stop offset=".282" stop-color="#815830"/><stop offset=".447" stop-color="#795029"/><stop offset=".999" stop-color="#46250a"/></linearGradient><path fill="url(#prefix__h)" d="M35.315 35.914c.29-.152.683-.488.042-1.728-1.875-4.518-1.644-8.017-1.652-8.627l-.043-2.717 1.371.246.158 2.767s-.12 4.17 1.89 8.802c.702 1.3.013 1.988-.282 2.099 0 0-6.312 2.439-13.014 2.201 0-.229.175-.334.175-.751 5.977-.184 11.355-2.292 11.355-2.292z"/><linearGradient id="prefix__i" x1="-2369.664" x2="-2358.377" y1="1188.921" y2="1183.383" gradientTransform="matrix(-1 0 0 1 -2328.25 -1152)" gradientUnits="userSpaceOnUse"><stop offset="0" stop-color="#8c633a"/><stop offset=".246" stop-color="#7b522b"/><stop offset=".447" stop-color="#734a23"/><stop offset=".999" stop-color="#4d290d"/></linearGradient><path fill="url(#prefix__i)" d="M35.552 35.984c.217-.115.719-.423.065-1.676-1.909-4.546-1.68-8.216-1.686-8.673l-.066-2.757 1.168.209.162 2.639s-.115 4.247 1.895 8.879c.705 1.302.08 2.044-.315 2.193 0 0-6.286 2.416-12.986 2.179 0-.197.125-.343.125-.689 6.093-.128 11.638-2.304 11.638-2.304z"/><linearGradient id="prefix__j" x1="-2369.692" x2="-2358.375" y1="1188.945" y2="1183.392" gradientTransform="matrix(-1 0 0 1 -2328.25 -1152)" gradientUnits="userSpaceOnUse"><stop offset="0" stop-color="#7d552d"/><stop offset=".182" stop-color="#754c25"/><stop offset=".447" stop-color="#6d441e"/><stop offset=".999" stop-color="#532e0f"/></linearGradient><path fill="url(#prefix__j)" d="M35.788 36.055c.145-.077.755-.359.088-1.625-1.943-4.575-1.717-8.413-1.72-8.719l-.089-2.797.966.173.166 2.511s-.111 4.325 1.9 8.956c.707 1.305.147 2.1-.347 2.286 0 0-6.258 2.394-12.959 2.157 0-.165.075-.352.075-.628 6.208-.07 11.92-2.314 11.92-2.314z"/><linearGradient id="prefix__k" x1="-2369.722" x2="-2358.372" y1="1188.968" y2="1183.401" gradientTransform="matrix(-1 0 0 1 -2328.25 -1152)" gradientUnits="userSpaceOnUse"><stop offset="0" stop-color="#6f4620"/><stop offset=".03" stop-color="#6e451f"/><stop offset=".447" stop-color="#663e18"/><stop offset=".999" stop-color="#5a3311"/></linearGradient><path fill="url(#prefix__k)" d="M36.024 36.125c.072-.038.791-.295.111-1.573-1.976-4.603-1.753-8.612-1.754-8.764l-.112-2.837.764.137.17 2.384s-.106 4.402 1.904 9.034c.71 1.307.213 2.156-.379 2.379 0 0-6.231 2.372-12.933 2.134 0-.133.024-.361.024-.567 6.325-.015 12.205-2.327 12.205-2.327z"/><path fill="#603813" d="M36.261 36.196s.828-.23.133-1.522c-2.01-4.632-1.789-8.811-1.789-8.811l-.134-2.877.562.101.173 2.256s-.101 4.479 1.909 9.111c.713 1.31.28 2.212-.41 2.473 0 0-6.204 2.35-12.905 2.112 0-.102-.026-.37-.026-.505 6.439.042 12.487-2.338 12.487-2.338z"/><linearGradient id="prefix__l" x1="-2427.016" x2="-2438.783" y1="1198.811" y2="1192.094" gradientTransform="matrix(-1 0 0 .9876 -2420.897 -1145.866)" gradientUnits="userSpaceOnUse"><stop offset="0" stop-color="#c69c6d"/><stop offset=".165" stop-color="#aa8054"/><stop offset=".337" stop-color="#946a40"/><stop offset=".447" stop-color="#8c6239"/><stop offset=".999" stop-color="#331604"/></linearGradient><path fill="url(#prefix__l)" d="M12.783 26.314s.133 3.938-1.876 8.57c-.694 1.292.187 1.819.187 1.819s6.394 2.505 13.095 2.268V21.147L12.93 23.164l-.147 3.15z"/><linearGradient id="prefix__m" x1="6.654" x2="17.824" y1="1188.908" y2="1183.428" gradientTransform="translate(0 -1152)" gradientUnits="userSpaceOnUse"><stop offset="0" stop-color="#c69c6d"/><stop offset=".165" stop-color="#aa8054"/><stop offset=".337" stop-color="#946a40"/><stop offset=".447" stop-color="#8c6239"/><stop offset=".999" stop-color="#331604"/></linearGradient><path fill="url(#prefix__m)" d="M13.357 35.778c-.507-.267-.574-.68.027-1.882 1.774-4.432 1.535-7.422 1.548-8.49l-.024-2.597-1.978.354-.147 3.15s.133 3.938-1.876 8.57c-.694 1.292.187 1.819.187 1.819s6.394 2.505 13.095 2.268c0-.324-.326-.306-.326-.936-5.631-.351-10.506-2.256-10.506-2.256z"/><linearGradient id="prefix__n" x1="6.63" x2="17.827" y1="1188.93" y2="1183.436" gradientTransform="translate(0 -1152)" gradientUnits="userSpaceOnUse"><stop offset="0" stop-color="#b78e60"/><stop offset=".133" stop-color="#a47a4f"/><stop offset=".325" stop-color="#8e643b"/><stop offset=".447" stop-color="#865c34"/><stop offset=".999" stop-color="#391b06"/></linearGradient><path fill="url(#prefix__n)" d="M13.121 35.849c-.435-.229-.61-.616.004-1.831 1.808-4.461 1.571-7.621 1.583-8.535l-.002-2.637-1.775.318-.151 3.022s.129 4.015-1.881 8.647c-.697 1.294.12 1.875.219 1.913 0 0 6.367 2.483 13.069 2.245 0-.292-.276-.315-.276-.874-5.748-.296-10.79-2.268-10.79-2.268z"/><linearGradient id="prefix__o" x1="6.603" x2="17.829" y1="1188.951" y2="1183.443" gradientTransform="translate(0 -1152)" gradientUnits="userSpaceOnUse"><stop offset="0" stop-color="#a97f53"/><stop offset=".091" stop-color="#9d7449"/><stop offset=".308" stop-color="#875e35"/><stop offset=".447" stop-color="#7f562e"/><stop offset=".999" stop-color="#402008"/></linearGradient><path fill="url(#prefix__o)" d="M12.884 35.919c-.362-.19-.646-.552-.019-1.779 1.841-4.489 1.608-7.818 1.617-8.582l.021-2.677-1.573.282-.155 2.895s.125 4.093-1.886 8.724c-.699 1.297.054 1.932.251 2.006 0 0 6.34 2.461 13.041 2.223 0-.26-.225-.324-.225-.813-5.862-.239-11.072-2.279-11.072-2.279z"/><linearGradient id="prefix__p" x1="6.576" x2="17.833" y1="1188.974" y2="1183.451" gradientTransform="translate(0 -1152)" gradientUnits="userSpaceOnUse"><stop offset="0" stop-color="#9a7146"/><stop offset=".025" stop-color="#976f44"/><stop offset=".282" stop-color="#815830"/><stop offset=".447" stop-color="#795029"/><stop offset=".999" stop-color="#46250a"/></linearGradient><path fill="url(#prefix__p)" d="M12.648 35.99c-.29-.152-.683-.488-.042-1.728 1.875-4.518 1.644-8.017 1.652-8.627l.043-2.717-1.371.246-.158 2.767s.12 4.17-1.89 8.802c-.702 1.3-.013 1.988.282 2.099 0 0 6.312 2.439 13.014 2.201 0-.229-.175-.334-.175-.751-5.978-.184-11.355-2.292-11.355-2.292z"/><linearGradient id="prefix__q" x1="6.548" x2="17.835" y1="1188.997" y2="1183.46" gradientTransform="translate(0 -1152)" gradientUnits="userSpaceOnUse"><stop offset="0" stop-color="#8c633a"/><stop offset=".246" stop-color="#7b522b"/><stop offset=".447" stop-color="#734a23"/><stop offset=".999" stop-color="#4d290d"/></linearGradient><path fill="url(#prefix__q)" d="M12.411 36.06c-.217-.115-.719-.423-.065-1.676 1.909-4.546 1.68-8.216 1.686-8.673l.066-2.757-1.168.209-.162 2.639s.115 4.247-1.895 8.879c-.705 1.302-.08 2.044.315 2.193 0 0 6.286 2.416 12.986 2.179 0-.197-.125-.343-.125-.689-6.093-.128-11.638-2.304-11.638-2.304z"/><linearGradient id="prefix__r" x1="6.521" x2="17.838" y1="1189.021" y2="1183.468" gradientTransform="translate(0 -1152)" gradientUnits="userSpaceOnUse"><stop offset="0" stop-color="#7d552d"/><stop offset=".182" stop-color="#754c25"/><stop offset=".447" stop-color="#6d441e"/><stop offset=".999" stop-color="#532e0f"/></linearGradient><path fill="url(#prefix__r)" d="M12.175 36.131c-.145-.077-.755-.359-.088-1.625 1.943-4.575 1.717-8.413 1.72-8.719l.089-2.797-.966.173-.165 2.51s.111 4.325-1.9 8.956c-.707 1.305-.147 2.1.347 2.286 0 0 6.258 2.394 12.959 2.157 0-.165-.075-.352-.075-.628-6.209-.069-11.921-2.313-11.921-2.313z"/><linearGradient id="prefix__s" x1="6.492" x2="17.841" y1="1189.045" y2="1183.477" gradientTransform="translate(0 -1152)" gradientUnits="userSpaceOnUse"><stop offset="0" stop-color="#6f4620"/><stop offset=".03" stop-color="#6e451f"/><stop offset=".447" stop-color="#663e18"/><stop offset=".999" stop-color="#5a3311"/></linearGradient><path fill="url(#prefix__s)" d="M11.938 36.202c-.072-.038-.791-.295-.111-1.573 1.976-4.603 1.753-8.612 1.754-8.764l.112-2.837-.764.137-.17 2.384s.106 4.402-1.904 9.034c-.71 1.307-.213 2.156.379 2.379 0 0 6.231 2.372 12.933 2.134 0-.133-.024-.361-.024-.567-6.325-.015-12.205-2.327-12.205-2.327z"/><path fill="#603813" d="M11.702 36.272s-.828-.23-.133-1.522c2.01-4.632 1.789-8.811 1.789-8.811l.134-2.877-.562.101-.173 2.256s.101 4.479-1.909 9.111c-.713 1.31-.28 2.212.41 2.473 0 0 6.204 2.35 12.905 2.112 0-.102.026-.37.026-.505-6.439.042-12.487-2.338-12.487-2.338z"/><linearGradient id="prefix__t" x1="23.996" x2="23.996" y1="43.299" y2="39.807" gradientUnits="userSpaceOnUse"><stop offset="0" stop-color="#fdd02d"/><stop offset=".999" stop-color="#cf941d"/></linearGradient><path fill="url(#prefix__t)" d="M24 44l-4.5-6c-.993-1.294 9.932-1.274 9 0L24 44z"/><radialGradient id="prefix__u" cx="-1158.209" cy="5.962" r="1.851" gradientTransform="matrix(-1.0734 .1748 .4815 2.1652 -1231.482 218.556)" gradientUnits="userSpaceOnUse"><stop offset="0" stop-color="#ffe16e"/><stop offset=".461" stop-color="#ffd226"/><stop offset=".658" stop-color="#fbc921"/><stop offset=".978" stop-color="#f1b114"/><stop offset=".999" stop-color="#f0af13"/></radialGradient><path fill="url(#prefix__u)" d="M15.114 26.895c-.74-.193-2.528-.07-2.589 1.706-.058 1.679.452 2.444 1.13 3.165.761.809 2.128.803 2.015.16-.113-.642-.556-5.031-.556-5.031z"/><radialGradient id="prefix__v" cx="-20.957" cy="5.962" r="1.879" gradientTransform="matrix(1.0633 .1748 -.477 2.1652 58.423 19.804)" gradientUnits="userSpaceOnUse"><stop offset="0" stop-color="#ffe16e"/><stop offset=".461" stop-color="#ffd226"/><stop offset=".741" stop-color="#f8c21d"/><stop offset=".999" stop-color="#f0af13"/></radialGradient><path fill="url(#prefix__v)" d="M32.742 26.895c.733-.193 2.504-.07 2.565 1.706.058 1.679-.448 2.444-1.12 3.165-.754.809-2.108.803-1.997.16.112-.642.552-5.031.552-5.031z"/><radialGradient id="prefix__w" cx="175.377" cy="1123.158" r="12.068" fx="175.314" fy="1117.989" gradientTransform="matrix(.8889 0 0 1.0839 -131.962 -1190.816)" gradientUnits="userSpaceOnUse"><stop offset="0" stop-color="#ffe16e"/><stop offset=".629" stop-color="#ffd226"/><stop offset=".75" stop-color="#fdcd23"/><stop offset=".899" stop-color="#f6bd1b"/><stop offset=".999" stop-color="#f0af13"/></radialGradient><path fill="url(#prefix__w)" d="M34.368 27.164c0 2.384-1.227 5.614-2.374 7.402C29.657 38.207 26.053 40 23.918 40c-2.082 0-5.874-1.82-8.102-5.434-1.115-1.808-2.322-5.017-2.322-7.402 0-.523.014-4.23.042-4.7.16-2.699 2.068-9.314 10.396-9.314 8.33 0 10.184 6.452 10.374 8.993.041.566.062 4.379.062 5.021z"/><radialGradient id="prefix__x" cx="-782.012" cy="131.915" r="7.153" gradientTransform="matrix(-.0112 .979 -1.4286 -.0163 203.595 787.407)" gradientUnits="userSpaceOnUse"><stop offset="0" stop-color="#c69c6d"/><stop offset=".232" stop-color="#aa8054"/><stop offset=".474" stop-color="#946a40"/><stop offset=".629" stop-color="#8c6239"/><stop offset=".734" stop-color="#875d34"/><stop offset=".865" stop-color="#774e27"/><stop offset=".999" stop-color="#603813"/></radialGradient><path fill="url(#prefix__x)" d="M14.163 23.82c1.061-.295 3.779-1.947 5.905-4.604a.764.764 0 011.008-.152c1.424.899 4.575 1.547 8.483.953a.771.771 0 01.711.258c1.459 1.735 1.872 2.636 3.091 3.359.926.553 1.639 1.735 1.733 2.356.28-2.755.997-13.664-11.209-13.664-1.265 0-2.571.235-3.459.98-.58-.118-1.484-.043-2.087.235-6.726 3.104-5.428 11.51-5.505 12.778.125-1.856.907-2.314 1.329-2.499z"/><radialGradient id="prefix__y" cx="23.934" cy="1175.108" r="10.725" gradientTransform="translate(0 -1152)" gradientUnits="userSpaceOnUse"><stop offset="0" stop-color="#603813" stop-opacity="0"/><stop offset=".999" stop-color="#603813" stop-opacity=".2"/></radialGradient><path fill="url(#prefix__y)" d="M34.335 26.135c-.097-.635-2.339-3.1-3.84-4.873a.8.8 0 00-.732-.264c-4.019.606-7.317-.861-8.782-1.779-.339-.212-.786-.155-1.036.155-1.677 2.081-5.044 5.938-6.423 6.654-.022.127-.017.781-.017 1.082 1.551-.54 5.068-3.977 6.788-6.111.25-.31.482-.348.82-.136 1.465.918 4.302 1.631 8.321 1.025.274-.042.575.037.732.264 1.304 1.892 3.432 4.529 4.193 4.969.001-.391.016-.745-.024-.986z"/><radialGradient id="prefix__z" cx="23.934" cy="1175.085" r="10.72" gradientTransform="translate(0 -1152)" gradientUnits="userSpaceOnUse"><stop offset="0" stop-color="#5c3512" stop-opacity=".143"/><stop offset=".999" stop-color="#5c3512" stop-opacity=".314"/></radialGradient><path fill="url(#prefix__z)" d="M34.34 26.149c-.097-.635-2.396-3.225-3.897-4.997a.8.8 0 00-.732-.264c-4.019.606-7.266-.75-8.731-1.669-.339-.212-.786-.155-1.036.155-1.677 2.081-5.048 5.948-6.426 6.664-.022.127-.015.74-.016 1.015 1.634-.642 4.972-3.879 6.772-6.177.247-.313.482-.348.82-.136 1.465.918 4.317 1.628 8.335 1.022.274-.042.567.042.724.269 1.352 1.955 3.464 4.606 4.204 5.047.005-.414.024-.688-.017-.929z"/><radialGradient id="prefix__A" cx="23.934" cy="1175.064" r="10.716" gradientTransform="translate(0 -1152)" gradientUnits="userSpaceOnUse"><stop offset="0" stop-color="#573111" stop-opacity=".286"/><stop offset=".999" stop-color="#573111" stop-opacity=".429"/></radialGradient><path fill="url(#prefix__A)" d="M34.345 26.163c-.097-.635-2.452-3.35-3.953-5.122a.8.8 0 00-.732-.264c-4.019.606-7.214-.64-8.68-1.559-.339-.212-.786-.155-1.036.155-1.677 2.081-5.051 5.958-6.43 6.674-.022.127-.014.7-.016.948 1.718-.744 4.868-3.787 6.756-6.243.243-.316.482-.348.82-.136 1.465.918 4.331 1.626 8.35 1.019.274-.042.56.047.717.274 1.401 2.019 3.495 4.684 4.216 5.124.007-.434.029-.628-.012-.87z"/><radialGradient id="prefix__B" cx="23.935" cy="1175.043" r="10.711" gradientTransform="translate(0 -1152)" gradientUnits="userSpaceOnUse"><stop offset="0" stop-color="#532e10" stop-opacity=".429"/><stop offset=".999" stop-color="#532e10" stop-opacity=".543"/></radialGradient><path fill="url(#prefix__B)" d="M34.35 26.178c-.097-.635-2.508-3.474-4.009-5.246a.8.8 0 00-.732-.264c-4.019.606-7.162-.53-8.627-1.448-.339-.212-.786-.155-1.036.155-1.677 2.081-5.054 5.967-6.433 6.683-.022.127-.012.659-.015.882 1.801-.845 4.771-3.691 6.74-6.309.239-.318.482-.348.82-.136 1.465.918 4.345 1.623 8.365 1.017.274-.042.553.053.71.28 1.449 2.082 3.527 4.761 4.228 5.202.005-.46.03-.575-.011-.816z"/><radialGradient id="prefix__C" cx="23.935" cy="1175.022" r="10.707" gradientTransform="translate(0 -1152)" gradientUnits="userSpaceOnUse"><stop offset="0" stop-color="#4f2b0e" stop-opacity=".571"/><stop offset=".999" stop-color="#4f2b0e" stop-opacity=".657"/></radialGradient><path fill="url(#prefix__C)" d="M34.355 26.192c-.097-.635-2.565-3.599-4.066-5.371a.8.8 0 00-.732-.264c-4.019.606-7.111-.419-8.576-1.337-.339-.212-.786-.155-1.036.155-1.677 2.081-5.057 5.976-6.436 6.693-.022.127-.011.619-.015.814 1.884-.947 4.675-3.593 6.724-6.375.236-.321.482-.348.82-.136 1.465.918 4.36 1.621 8.378 1.014a.708.708 0 01.702.286c1.497 2.146 3.559 4.839 4.24 5.28.011-.482.038-.519-.003-.759z"/><radialGradient id="prefix__D" cx="23.935" cy="1174.999" r="10.703" gradientTransform="translate(0 -1152)" gradientUnits="userSpaceOnUse"><stop offset="0" stop-color="#4b280d" stop-opacity=".714"/><stop offset=".999" stop-color="#4b280d" stop-opacity=".771"/></radialGradient><path fill="url(#prefix__D)" d="M34.36 26.205c-.097-.635-2.621-3.723-4.122-5.495a.8.8 0 00-.732-.264c-4.019.606-7.059-.309-8.525-1.227-.339-.212-.786-.155-1.036.155-1.677 2.081-5.061 5.986-6.439 6.702-.022.127-.008.579-.015.747 1.967-1.048 4.58-3.494 6.708-6.442.233-.323.482-.348.82-.136 1.465.918 4.374 1.618 8.393 1.012a.703.703 0 01.696.291c1.546 2.209 3.591 4.916 4.251 5.357.011-.501.042-.458.001-.7z"/><radialGradient id="prefix__E" cx="23.936" cy="1174.978" r="10.698" gradientTransform="translate(0 -1152)" gradientUnits="userSpaceOnUse"><stop offset="0" stop-color="#46240c" stop-opacity=".857"/><stop offset=".999" stop-color="#46240c" stop-opacity=".886"/></radialGradient><path fill="url(#prefix__E)" d="M34.365 26.219c-.097-.635-2.677-3.848-4.178-5.62a.8.8 0 00-.732-.264c-4.019.606-7.008-.199-8.473-1.117-.339-.212-.786-.155-1.036.155-1.677 2.081-5.064 5.996-6.443 6.712-.022.127-.007.539-.015.68 2.05-1.15 4.492-3.392 6.692-6.508.231-.325.482-.348.82-.136 1.465.918 4.388 1.615 8.407 1.009.274-.042.53.07.689.296 1.594 2.273 3.623 4.994 4.264 5.434.013-.522.045-.399.005-.641z"/><path fill="#42210b" d="M34.37 26.234c-.097-.635-2.734-3.972-4.235-5.744a.8.8 0 00-.732-.264c-4.019.606-6.956-.088-8.421-1.006-.339-.212-.786-.155-1.036.155-1.677 2.081-5.067 6.006-6.446 6.722-.022.127-.005.498-.015.614 2.133-1.251 4.396-3.294 6.675-6.574.228-.327.482-.348.82-.136 1.465.918 4.403 1.613 8.421 1.006a.688.688 0 01.681.302c1.642 2.336 3.655 5.071 4.275 5.512.018-.548.053-.346.013-.587z"/><radialGradient id="prefix__F" cx="23.587" cy="21.604" r="9.03" gradientUnits="userSpaceOnUse"><stop offset="0" stop-color="#c69c6d"/><stop offset=".232" stop-color="#aa8054"/><stop offset=".474" stop-color="#946a40"/><stop offset=".629" stop-color="#8c6239"/><stop offset=".734" stop-color="#875d34"/><stop offset=".865" stop-color="#774e27"/><stop offset=".999" stop-color="#603813"/></radialGradient><path fill="url(#prefix__F)" d="M33.941 23.397c-.699-1.098-1.42-2.679-2.88-4.378a.78.78 0 00-.711-.252c-3.814.567-6.583-.325-8.062-1.207-.405-.339-1.16-.749-1.005-2.553.091-1.061-1.7-1.133-2.184.077 0 0-.696 1.191-.522 2.707.087.278-.523.876-.561.921-2.127 2.602-2.991 3.761-4.31 4.935-.611.556-.823 2.083-.896 3.036l.058.007c.191-.948.621-1.164 1.18-1.525.967-.601 3.877-3.224 6.004-5.826.243-.298.74-.344 1.07-.141 1.424.881 4.429 1.573 8.336.991.266-.04.677.093.851.295 1.459 1.699 2.041 3.497 3.04 4.484.612.605 1.261 1.204 1.567 1.728l.13-.016c-.138-.836-.591-2.475-1.105-3.283z"/><radialGradient id="prefix__G" cx="23.585" cy="21.654" r="9.005" gradientUnits="userSpaceOnUse"><stop offset="0" stop-color="#b78e60"/><stop offset=".188" stop-color="#a47a4f"/><stop offset=".457" stop-color="#8e643b"/><stop offset=".629" stop-color="#865c34"/><stop offset=".744" stop-color="#81572f"/><stop offset=".886" stop-color="#714822"/><stop offset=".999" stop-color="#603813"/></radialGradient><path fill="url(#prefix__G)" d="M33.871 23.61c-.72-1.121-1.487-2.693-2.91-4.435a.766.766 0 00-.711-.252c-3.814.567-6.642-.315-8.122-1.197-.405-.339-1.146-.778-.984-2.667.086-.992-1.503-1.014-1.93.06 0 0-.65 1.234-.439 2.741.087.278-.448.805-.485.851-2.199 2.768-3.271 4.037-4.536 5.153-.609.547-.842 1.927-.932 2.819l.064.008c.211-.848.643-1.083 1.163-1.426 1.372-.936 3.875-3.313 6.002-5.915.243-.298.731-.346 1.061-.142 1.424.881 4.446 1.605 8.353 1.024.266-.04.662.083.83.288 1.412 1.71 1.993 3.41 3.067 4.524.566.588 1.191 1.151 1.516 1.655.046-.007.098-.012.146-.018-.172-.85-.659-2.301-1.153-3.071z"/><radialGradient id="prefix__H" cx="23.58" cy="21.708" r="8.979" gradientUnits="userSpaceOnUse"><stop offset="0" stop-color="#a97f53"/><stop offset=".129" stop-color="#9d7449"/><stop offset=".434" stop-color="#875e35"/><stop offset=".629" stop-color="#7f562e"/><stop offset=".759" stop-color="#7a5129"/><stop offset=".92" stop-color="#6a421c"/><stop offset=".999" stop-color="#603813"/></radialGradient><path fill="url(#prefix__H)" d="M33.802 23.821c-.741-1.144-1.555-2.707-2.94-4.492-.163-.209-.444-.292-.711-.252-3.814.567-6.702-.305-8.181-1.188-.405-.339-1.131-.807-.964-2.781.08-.925-1.306-.895-1.675.043 0 0-.605 1.277-.357 2.775.087.278-.373.734-.409.781-2.278 2.929-3.551 4.312-4.761 5.372-.608.537-.862 1.775-.967 2.606l.073.009c.229-.756.663-1.006 1.143-1.33 1.778-1.271 3.873-3.402 6-6.005.243-.298.723-.347 1.052-.143 1.424.881 4.462 1.639 8.37 1.057.266-.04.646.074.811.282 1.365 1.722 1.947 3.322 3.093 4.563.528.572 1.12 1.104 1.456 1.589l.168-.022c-.207-.848-.725-2.126-1.201-2.864z"/><radialGradient id="prefix__I" cx="23.576" cy="21.762" r="8.952" gradientUnits="userSpaceOnUse"><stop offset="0" stop-color="#9a7146"/><stop offset=".035" stop-color="#976f44"/><stop offset=".397" stop-color="#815830"/><stop offset=".629" stop-color="#795029"/><stop offset=".776" stop-color="#744b24"/><stop offset=".96" stop-color="#643c17"/><stop offset=".999" stop-color="#603813"/></radialGradient><path fill="url(#prefix__I)" d="M33.732 24.034c-.761-1.166-1.621-2.721-2.97-4.548-.158-.213-.444-.292-.711-.252-3.814.567-6.761-.296-8.241-1.179-.405-.339-1.118-.837-.943-2.894.075-.856-1.109-.777-1.421.026 0 0-.559 1.32-.273 2.808.087.278-.298.663-.334.711-2.352 3.093-3.831 4.588-4.987 5.591-.608.53-.88 1.621-1.001 2.39l.085.01c.246-.667.678-.928 1.119-1.234 2.183-1.607 3.871-3.491 5.997-6.093.243-.298.714-.348 1.043-.144 1.424.881 4.479 1.671 8.387 1.09.266-.04.631.065.79.277 1.318 1.733 1.903 3.231 3.12 4.602.491.553 1.051 1.056 1.394 1.52l.19-.027c-.238-.837-.785-1.95-1.244-2.654z"/><radialGradient id="prefix__J" cx="23.57" cy="21.814" r="8.924" gradientUnits="userSpaceOnUse"><stop offset="0" stop-color="#8c633a"/><stop offset=".346" stop-color="#7b522b"/><stop offset=".629" stop-color="#734a23"/><stop offset=".803" stop-color="#6e451e"/><stop offset=".999" stop-color="#603813"/></radialGradient><path fill="url(#prefix__J)" d="M33.663 24.246c-.782-1.189-1.689-2.735-3-4.605-.152-.217-.444-.292-.711-.252-3.814.567-6.82-.287-8.3-1.169-.405-.339-1.104-.866-.922-3.007.069-.788-.913-.659-1.166.009 0 0-.514 1.363-.191 2.842.087.278-.223.593-.259.64-2.423 3.259-4.111 4.865-5.212 5.81-.605.519-.898 1.467-1.035 2.175l.11.014c.262-.579.683-.852 1.083-1.14 2.588-1.942 3.869-3.58 5.996-6.183.243-.298.705-.349 1.035-.146 1.424.881 4.496 1.704 8.404 1.122.266-.04.615.056.771.27 1.271 1.744 1.862 3.138 3.147 4.642.456.533.986 1.009 1.332 1.452l.207-.031c-.273-.813-.848-1.77-1.289-2.443z"/><radialGradient id="prefix__K" cx="23.56" cy="21.867" r="8.896" gradientUnits="userSpaceOnUse"><stop offset="0" stop-color="#7d552d"/><stop offset=".257" stop-color="#754c25"/><stop offset=".629" stop-color="#6d441e"/><stop offset=".847" stop-color="#683f19"/><stop offset=".999" stop-color="#603813"/></radialGradient><path fill="url(#prefix__K)" d="M34.904 26.667c0-.008 0-.008-.008-.016-.301-.773-.887-1.555-1.302-2.19-.252-.374-.513-.781-.798-1.221-.627-.977-1.351-2.124-2.23-3.443-.147-.22-.448-.293-.716-.252-3.809.57-6.878-.277-8.36-1.156-.407-.342-1.091-.895-.904-3.126.065-.716-.708-.537-.912-.008 0 0-.464 1.408-.106 2.882.09.277-.147.521-.179.57-1.408 1.929-2.621 3.313-3.598 4.314a25.065 25.065 0 01-1.84 1.709c-.391.334-.659.781-.838 1.229a5.06 5.06 0 00-.236.732l.148.021a2.31 2.31 0 01.471-.607c.008 0 .008-.008.008-.008v-.008c.008.008.008 0 .008 0 .008 0 .008-.008.016-.008l.024-.024a.222.222 0 01.049-.041l.024-.024c.008 0 .016-.008.024-.016v-.008h.008v-.008s0 .008.008 0c.041-.033.09-.073.138-.098.081-.073.171-.138.252-.195.122-.09.236-.179.35-.269.024-.016.049-.041.073-.057v-.008h.008c.008-.008.016-.008.016-.008a.222.222 0 01.049-.041c.016-.016.024-.024.041-.033.024-.016.049-.041.065-.049v-.008c.016-.008.024-.016.033-.016.024-.033.049-.049.073-.065.024-.016.041-.033.057-.049.016-.008.024-.016.033-.024 2.377-1.929 3.272-3.289 5.201-5.649a.768.768 0 01.741-.244.628.628 0 01.285.098c.415.252.96.505 1.636.724.049.016.09.033.138.041.293.09.619.179.952.252.138.033.277.057.423.081.13.024.26.049.399.065.081.016.155.033.236.033a16.4 16.4 0 004.632-.041.877.877 0 01.619.138.124.124 0 01.065.065c.033.016.049.041.065.065l.049.073c.057.073.106.147.155.22.065.09.122.179.187.269.049.081.098.155.147.228.049.073.09.138.13.203.049.065.081.13.122.187l.016.016c.033.065.073.122.114.179.7 1.123 1.278 2.124 2.255 3.305.301.358.635.692.928 1.001v.008h.008c0 .008.008.008.008.008 0 .008.008.008.008.008 0 .008.008.008.008.008.111.119.213.235.306.349.074-.012.147-.024.226-.035a.098.098 0 00-.008-.028z"/><radialGradient id="prefix__L" cx="23.549" cy="21.92" r="8.864" gradientUnits="userSpaceOnUse"><stop offset="0" stop-color="#6f4620"/><stop offset=".042" stop-color="#6e451f"/><stop offset=".629" stop-color="#663e18"/><stop offset=".975" stop-color="#613914"/><stop offset=".999" stop-color="#603813"/></radialGradient><path fill="url(#prefix__L)" d="M33.525 24.67a233.66 233.66 0 01-3.061-4.718c-.142-.224-.444-.292-.711-.252-3.814.567-6.939-.268-8.419-1.15-.405-.339-1.083-.925-.882-3.233.057-.652-.518-.421-.658-.025 0 0-.423 1.451-.025 2.91.087.278-.073.451-.107.499-2.558 3.598-4.67 5.417-5.662 6.248-.599.499-.933 1.163-1.103 1.745.067.009.13.019.193.029.283-.426.66-.716.975-.959 3.398-2.613 3.865-3.758 5.992-6.361.243-.298.687-.352 1.017-.148 1.424.881 4.53 1.77 8.438 1.188.266-.04.584.037.731.259 1.175 1.766 1.784 2.947 3.2 4.72.392.491.856.917 1.198 1.318.079-.013.155-.027.239-.039-.333-.752-.948-1.419-1.355-2.031z"/><path fill="#603813" d="M33.456 24.882c-.845-1.258-1.89-2.777-3.091-4.774-.137-.228-.444-.292-.711-.252-3.814.567-6.999-.258-8.478-1.14-.405-.339-1.062-.953-.86-3.346.053-.584-.321-.303-.404-.042 0 0-.378 1.494.057 2.943.087.278.002.38-.033.429-2.629 3.764-4.95 5.693-5.888 6.466-.596.489-.95 1.014-1.136 1.53l.241.037c.286-.367.639-.649.914-.871 3.804-2.948 3.862-3.848 5.989-6.45.243-.298.679-.352 1.008-.149 1.424.881 4.547 1.802 8.455 1.221.266-.04.569.028.711.252 1.128 1.778 1.75 2.849 3.226 4.76.362.469.794.872 1.129 1.252.082-.014.164-.028.252-.041-.361-.707-.99-1.243-1.381-1.825z"/><path fill="#805b2a" d="M16.038 28.026c-.019.299.045.273.16.422 0 0 1.297 1.794 5.211.566.283-.101.487-.293.457-.524-.501-3.974-5.521-3.39-5.828-.464z"/><path fill="#fff" d="M16.096 27.847c-.098.21-.067.378 0 .547.279.737 2.519 3.363 5.542.606.225-.195.261-.366.205-.609-.056-.243-.839-2.23-2.891-2.23-2.033.001-2.687 1.4-2.856 1.686z"/><linearGradient id="prefix__M" x1="17.323" x2="20.729" y1="1179.846" y2="1179.846" gradientTransform="translate(0 -1152)" gradientUnits="userSpaceOnUse"><stop offset="0" stop-color="#c69c6d"/><stop offset="1" stop-color="#754c24"/></linearGradient><circle cx="19.026" cy="27.846" r="1.703" fill="url(#prefix__M)"/><radialGradient id="prefix__N" cx="19.026" cy="1179.846" r=".857" gradientTransform="translate(0 -1152)" gradientUnits="userSpaceOnUse"><stop offset="0" stop-color="#1c1911"/><stop offset=".999" stop-color="#171714"/></radialGradient><circle cx="19.026" cy="27.846" r=".857" fill="url(#prefix__N)"/><circle cx="18.612" cy="27.404" r=".402" fill="#fff"/><path fill="#805b2a" d="M31.709 28.026c.019.299-.045.273-.16.422 0 0-1.297 1.794-5.211.566-.283-.101-.487-.293-.457-.524.501-3.974 5.521-3.39 5.828-.464z"/><path fill="#fff" d="M31.651 27.847c.098.21.067.378 0 .547-.279.737-2.519 3.363-5.542.606-.225-.195-.261-.366-.205-.609.056-.243.839-2.23 2.891-2.23 2.031.001 2.687 1.4 2.856 1.686z"/><linearGradient id="prefix__O" x1="72.639" x2="76.045" y1="224.291" y2="224.291" gradientTransform="matrix(1 0 0 -1 -45.622 252.137)" gradientUnits="userSpaceOnUse"><stop offset="0" stop-color="#c69c6d"/><stop offset="1" stop-color="#754c24"/></linearGradient><circle cx="28.72" cy="27.846" r="1.703" fill="url(#prefix__O)"/><radialGradient id="prefix__P" cx="-2957.294" cy="1179.846" r=".857" gradientTransform="matrix(-1 0 0 1 -2928.574 -1152)" gradientUnits="userSpaceOnUse"><stop offset="0" stop-color="#1c1911"/><stop offset=".999" stop-color="#171714"/></radialGradient><circle cx="28.72" cy="27.846" r=".857" fill="url(#prefix__P)"/><circle cx="28.329" cy="27.404" r=".402" fill="#fff"/><path d="M30.563 24.893a5.511 5.511 0 00-3.305.19.614.614 0 11-.342-1.174l.014-.002a6.411 6.411 0 013.835.421.301.301 0 01-.197.566l-.005-.001zm-13.295-.565a6.42 6.42 0 013.835-.421l.011.002a.614.614 0 11-.339 1.175 5.495 5.495 0 00-3.305-.19l-.006.002a.3.3 0 01-.366-.217.305.305 0 01.17-.351z" fill="#805b2a"/><path fill="#8e2809" d="M20.809 35.067c-.178-.019-.19.132-.074.282.834 1.092 2.066 1.394 3.178 1.394 1.022 0 2.595-.427 3.199-1.373.102-.16.072-.338-.095-.304-1.576.445-2.305-.799-3.135.03-.806-.804-1.608.264-3.073-.029z"/><path fill="#601808" d="M23.846 36.227c.042-.018 1.175-.489 2.145-.602-1.241-.096-2.089.112-2.149.128-.06-.015-.908-.224-2.149-.128.97.113 2.103.584 2.145.602v.003l.004-.002.004.002v-.003z"/><radialGradient id="prefix__Q" cx="-307.949" cy="693.976" r="1.391" gradientTransform="matrix(1.37 0 0 -1.3195 445.853 947.239)" gradientUnits="userSpaceOnUse"><stop offset=".245" stop-color="#cc9000"/><stop offset=".415" stop-color="#d09504" stop-opacity=".822"/><stop offset=".627" stop-color="#dca50f" stop-opacity=".599"/><stop offset=".851" stop-color="#eebd20" stop-opacity=".363"/><stop offset="1" stop-color="#fed12e" stop-opacity="0"/></radialGradient><path fill="url(#prefix__Q)" d="M23.948 32.091c-.641 0-1.163-.163-1.486-.339-.237-.13-.477-.07-.32.338.212.553.698 1.205 1.805 1.205 1.088 0 1.576-.629 1.794-1.176.168-.42-.074-.462-.28-.365a3.522 3.522 0 01-1.513.337z"/><radialGradient id="prefix__R" cx="-409.01" cy="604.179" r="1.432" gradientTransform="matrix(1.4827 .036 .0172 -.7101 620.045 475.142)" gradientUnits="userSpaceOnUse"><stop offset=".479" stop-color="#fed53f"/><stop offset=".926" stop-color="#fed53f" stop-opacity=".141"/><stop offset="1" stop-color="#fed53f" stop-opacity="0"/></radialGradient><path fill="url(#prefix__R)" d="M26.255 31.445c-.015.616-1.047 1.09-2.304 1.06-1.258-.031-2.265-.554-2.25-1.171.015-.616 1.047-1.09 2.304-1.06 1.258.031 2.265.556 2.25 1.171z"/><radialGradient id="prefix__S" cx="24.011" cy="314.964" r="1.149" gradientTransform="matrix(1 0 0 -.6596 0 239.1)" gradientUnits="userSpaceOnUse"><stop offset=".004" stop-color="#fff4c9"/><stop offset="1" stop-color="#fff4c9" stop-opacity="0"/></radialGradient><ellipse cx="24.011" cy="31.351" fill="url(#prefix__S)" rx="1.149" ry=".758"/><g><g opacity=".7" fill="#1f212b"><path d="M35.206 25.343l-.154-2.009c-3.107-.417-6.791-.64-11.052-.64-4.275 0-7.965.228-11.084.651l-.159 2.074s.009.421-.035 1.133c3.066-.447 6.944-.719 11.279-.719 4.317 0 8.192.268 11.246.709-.05-.753-.041-1.199-.041-1.199z" opacity=".111"/><path d="M35.206 25.343l-.139-1.812c-3.069-.414-6.748-.643-11.067-.643-4.335 0-8.019.234-11.099.654l-.144 1.876s.006.359-.026.963c3.028-.439 6.888-.716 11.269-.716 4.361 0 8.22.273 11.236.706-.037-.644-.03-1.028-.03-1.028z" opacity=".222"/><path d="M35.206 25.343l-.124-1.614c-3.032-.411-6.704-.646-11.082-.646-4.396 0-8.073.24-11.114.657l-.129 1.678s.006.289-.017.794c2.99-.431 6.833-.712 11.26-.712 4.405 0 8.248.277 11.227.703-.027-.543-.021-.86-.021-.86z" opacity=".333"/><path d="M35.206 25.343l-.109-1.416c-2.994-.408-6.66-.649-11.098-.649-4.458 0-8.128.247-11.13.661l-.114 1.481s.004.231-.01.624c2.953-.425 6.78-.71 11.254-.71 4.449 0 8.276.281 11.219.7-.016-.437-.012-.691-.012-.691z" opacity=".444"/><path d="M35.206 25.343l-.094-1.218c-2.954-.405-6.615-.653-11.112-.653-4.519 0-8.182.253-11.145.664l-.099 1.283s.004.162-.004.455c2.917-.418 6.728-.707 11.248-.707 4.493 0 8.306.285 11.213.697-.01-.33-.007-.521-.007-.521z" opacity=".556"/><path d="M35.206 25.343l-.078-1.021c-2.917-.402-6.571-.656-11.128-.656-4.582 0-8.237.26-11.16.667l-.083 1.085s.002.107-.001.286C15.637 25.294 19.433 25 24 25c4.537 0 8.336.29 11.209.695-.005-.221-.003-.352-.003-.352z" opacity=".667"/><path d="M35.206 25.343l-.063-.823c-2.878-.399-6.526-.66-11.143-.66-4.645 0-8.293.266-11.175.671l-.068.887.001.117c2.847-.405 6.63-.703 11.243-.703 4.582 0 8.368.294 11.206.692-.002-.114-.001-.181-.001-.181z" opacity=".778"/><path d="M35.206 25.343l-.048-.625c-2.839-.396-6.481-.663-11.158-.663-4.708 0-8.348.273-11.19.674l-.049.638c2.812-.398 6.581-.701 11.239-.701 4.627 0 8.402.298 11.206.691v-.014z" opacity=".889"/><path d="M35.174 24.916c-2.8-.392-6.435-.666-11.174-.666-4.772 0-8.404.28-11.206.677l-.02.262c2.785-.402 6.423-.689 11.226-.689 4.771 0 8.411.282 11.194.679l-.02-.263z"/></g><path fill="#fff" d="M14 16l3.998-10-2.54 1.579S18 0 23.5 0c3.5 0 5 3.5 5 3.5L34 16H14z"/><linearGradient id="prefix__T" x1="-931.131" x2="-912.362" y1="12.894" y2="7.156" gradientTransform="matrix(-1 0 0 1 -896 0)" gradientUnits="userSpaceOnUse"><stop offset="0" stop-color="#f282ff" stop-opacity="0"/><stop offset=".407" stop-color="#dc65e7" stop-opacity=".481"/><stop offset=".846" stop-color="#c142c9"/></linearGradient><path fill="url(#prefix__T)" d="M34 16L28.5 3.5S27 0 23.5 0c-5.5 0-8.042 7.579-8.042 7.579L17.998 6 14 16h20z"/><linearGradient id="prefix__U" x1="12.829" x2="30.607" y1="12.734" y2="7.299" gradientUnits="userSpaceOnUse"><stop offset="0" stop-color="#f282ff" stop-opacity="0"/><stop offset=".407" stop-color="#dc65e7" stop-opacity=".481"/><stop offset=".846" stop-color="#c142c9"/></linearGradient><path fill="url(#prefix__U)" d="M34 16H14l.01-.01L17.998 6l-2.54 1.579S18 0 23.5 0c3.5 0 5 3.5 5 3.5l5.49 12.49.01.01z"/><path fill="#f3b7fd" d="M15.076 13.321L14 16s3.001-2.001 10-2.001 9.999 2 10 2.001l-.01-.01-1.193-2.715c-1.792-.62-4.663-1.276-8.797-1.276-4.237 0-7.143.689-8.924 1.322z"/><path fill="#fff" d="M4 27.5C4 25.5 14 16 14 16s3-2.001 10-2.001S34 16 34 16s10 9.5 10 11.5c0 0-3-3.5-20-3.5S4 27.5 4 27.5z"/><linearGradient id="prefix__V" x1="4" x2="44" y1="20.75" y2="20.75" gradientUnits="userSpaceOnUse"><stop offset="0" stop-color="#f282ff" stop-opacity="0"/><stop offset=".444" stop-color="#de65ed" stop-opacity=".525"/><stop offset=".846" stop-color="#c948db"/></linearGradient><path fill="url(#prefix__V)" d="M4 27.5C4 25.5 14 16 14 16s3-2.001 10-2.001S34 16 34 16s10 9.5 10 11.5c0 0-3-3.5-20-3.5S4 27.5 4 27.5z"/><linearGradient id="prefix__W" x1="4" x2="44" y1="20.75" y2="20.75" gradientUnits="userSpaceOnUse"><stop offset=".154" stop-color="#c948db"/><stop offset=".556" stop-color="#de65ed" stop-opacity=".525"/><stop offset="1" stop-color="#f282ff" stop-opacity="0"/></linearGradient><path fill="url(#prefix__W)" d="M4 27.5C4 25.5 14 16 14 16s3-2.001 10-2.001S34 16 34 16s10 9.5 10 11.5c0 0-3-3.5-20-3.5S4 27.5 4 27.5z"/><radialGradient id="prefix__X" cx="24" cy="30.538" r="29.36" gradientTransform="matrix(.9995 -.0326 .0202 .6184 -.604 12.437)" gradientUnits="userSpaceOnUse"><stop offset=".123" stop-color="#a342c9"/><stop offset=".438" stop-color="#cb4add" stop-opacity=".829"/><stop offset=".696" stop-color="#de65ee" stop-opacity=".449"/><stop offset="1" stop-color="#f282ff" stop-opacity="0"/></radialGradient><path fill="url(#prefix__X)" d="M44 27.5S41 24 24 24 4 27.5 4 27.5C4 25.5 14 16 14 16l.01-.01C14.19 15.88 17.22 14 24 14c6.12 0 9.19 1.53 9.86 1.91.02.02.04.03.06.04.03.02.06.03.07.04L34 16s10 9.5 10 11.5z"/><path fill="#a600ab" d="M4 27.5S7 24 24 24s20 3.5 20 3.5l-.535.192C42.662 27.072 38.459 24.5 24 24.5c-14.433 0-18.647 2.563-19.464 3.193L4 27.5z"/><g opacity=".2"><path d="M15.071 13.321s1.71-2.435 4.679-2.856c2.666-.379 5.162-2.113 2.644-2.472-2.784-.396-5.557.909-5.874 1.707l-1.449 3.621z" opacity=".006"/><path d="M15.071 13.321s1.741-2.534 4.71-2.953c2.364-.336 4.688-1.87 2.421-2.239-2.483-.404-5.397.858-5.715 1.651l-1.416 3.541z" opacity=".011"/><path d="M15.071 13.321s1.772-2.633 4.741-3.05c2.061-.293 4.216-1.626 2.199-2.005-2.181-.41-5.238.807-5.556 1.594l-1.384 3.461z" opacity=".017"/><path d="M15.071 13.321s1.803-2.732 4.773-3.147c1.759-.249 3.743-1.382 1.977-1.772-1.88-.415-5.079.756-5.396 1.538l-1.354 3.381z" opacity=".022"/><path d="M15.071 13.321s1.834-2.83 4.804-3.245c1.457-.206 3.271-1.136 1.754-1.539-1.578-.419-4.919.705-5.237 1.481l-1.321 3.303z" opacity=".028"/><path d="M15.071 13.321s1.865-2.929 4.835-3.342c1.154-.163 2.799-.888 1.532-1.305-1.276-.42-4.76.654-5.078 1.424l-1.289 3.223z" opacity=".033"/><path d="M15.071 13.321s1.896-3.028 4.866-3.439c.852-.12 2.327-.636 1.309-1.072-.974-.417-4.601.603-4.919 1.368l-1.256 3.143z" opacity=".039"/><path d="M15.071 13.321s1.927-3.126 4.898-3.536c.549-.077 1.853-.377 1.087-.839-.675-.407-4.441.552-4.759 1.311l-1.226 3.064z" opacity=".044"/><path d="M15.071 13.321S17.029 10.096 20 9.687c.247-.034 1.365-.105.865-.605-.387-.387-4.282.501-4.6 1.255l-1.194 2.984z" opacity=".05"/></g><g opacity=".2"><path d="M30.636 8.353s-1.38-1.861-4.349-2.281c-2.666-.379-4.446.333-1.929-1.533 2.557-1.893 5.01.897 5.329 1.651l.949 2.163z" opacity=".006"/><path d="M30.594 8.258S29.256 6.419 26.287 6c-2.364-.336-4.07.286-1.805-1.409 2.286-1.705 4.921.925 5.239 1.679l.873 1.988z" opacity=".011"/><path d="M30.552 8.162s-1.296-1.818-4.265-2.236c-2.061-.293-3.694.239-1.681-1.286 2.015-1.516 4.832.954 5.15 1.708l.796 1.814z" opacity=".017"/><path d="M30.51 8.066s-1.254-1.797-4.223-2.213c-1.759-.249-3.321.188-1.557-1.162 1.74-1.332 4.743.982 5.061 1.736l.719 1.639z" opacity=".022"/><path d="M30.468 7.971s-1.212-1.776-4.181-2.19c-1.457-.206-2.945.141-1.433-1.038 1.468-1.144 4.654 1.011 4.972 1.765l.642 1.463z" opacity=".028"/><path d="M30.426 7.875s-1.17-1.755-4.14-2.168c-1.154-.163-2.57.094-1.309-.914 1.197-.956 4.565 1.039 4.883 1.793l.566 1.289z" opacity=".033"/><path d="M30.384 7.779s-1.128-1.733-4.098-2.145c-.852-.12-2.194.047-1.185-.79.926-.768 4.475 1.068 4.794 1.822l.489 1.113z" opacity=".039"/><path d="M30.343 7.684s-1.085-1.712-4.056-2.122c-.549-.077-1.817.001-1.061-.666.655-.578 4.386 1.096 4.705 1.85l.412.938z" opacity=".044"/><path d="M30.301 7.588s-1.043-1.691-4.014-2.099c-.247-.034-1.438-.042-.938-.542.387-.387 4.297 1.125 4.615 1.878l.337.763z" opacity=".05"/></g><g opacity=".2"><path d="M37.3 19.25c-.009-.004-2.661-1.338-5.049-2.105s-4.511-.968-3.462 1.293c.746 1.609 3.291 2.426 5.977 3.109s5.514 1.23 6.827 2.299c-1.288-1.499-2.89-3.176-4.293-4.596z" opacity=".011"/><path d="M28.999 18.411c.729 1.487 3.083 2.273 5.599 2.939l.25.066c2.595.676 5.324 1.237 6.632 2.302-1.072-1.241-2.355-2.602-3.552-3.829l-.008-.007a13.316 13.316 0 00-.598-.57c-.092-.033-2.612-1.273-4.888-2.001-2.343-.748-4.45-.969-3.435 1.1z" opacity=".018"/><path d="M29.208 18.385c.737 1.417 3.035 2.172 5.478 2.834l.245.066c2.504.669 5.135 1.245 6.438 2.306a89.522 89.522 0 00-3.427-3.689l-.007-.007a6.255 6.255 0 00-.59-.521c-.175-.061-2.562-1.207-4.728-1.897-2.299-.729-4.387-.97-3.409.908z" opacity=".024"/><path d="M29.418 18.359c.747 1.346 2.987 2.071 5.357 2.73l.239.066c2.413.662 4.945 1.252 6.243 2.309a89.459 89.459 0 00-3.301-3.548l-.007-.007a4.405 4.405 0 00-.581-.473c-.259-.089-2.513-1.142-4.567-1.792-2.256-.71-4.321-.974-3.383.715z" opacity=".031"/><path d="M29.627 18.333c.759 1.275 2.94 1.97 5.236 2.626l.233.067c2.322.655 4.756 1.26 6.048 2.312a88.779 88.779 0 00-3.176-3.407l-.007-.006c-.114-.117-.315-.262-.572-.424-.342-.118-2.464-1.076-4.407-1.688-2.211-.693-4.248-.98-3.355.52z" opacity=".037"/><path d="M29.836 18.307c.773 1.203 2.892 1.869 5.115 2.522l.227.067c2.231.648 4.567 1.267 5.854 2.315a91.771 91.771 0 00-3.05-3.267l-.007-.006c-.091-.094-.291-.224-.563-.376-.425-.146-2.415-1.011-4.246-1.583-2.168-.673-4.174-.986-3.33.328z" opacity=".044"/><path d="M30.046 18.281c.791 1.129 2.844 1.768 4.994 2.417l.221.067c2.141.641 4.377 1.275 5.659 2.319a92.833 92.833 0 00-2.925-3.126l-.007-.005c-.068-.07-.268-.185-.555-.327-.509-.174-2.366-.945-4.086-1.479-2.122-.656-4.093-.996-3.301.134z" opacity=".05"/><path d="M30.255 18.255c.813 1.052 2.797 1.667 4.873 2.313l.216.067c2.05.634 4.188 1.282 5.465 2.322a96.813 96.813 0 00-2.799-2.986l-.007-.005c-.046-.047-.244-.146-.546-.279-.592-.202-2.317-.88-3.925-1.375-2.08-.635-4.011-1.006-3.277-.057z" opacity=".057"/><path d="M30.464 18.229c.842.968 2.749 1.566 4.752 2.209l.21.067c1.959.627 3.998 1.29 5.27 2.325a98.373 98.373 0 00-2.674-2.845l-.006-.004c-.023-.023-.221-.108-.537-.231-.675-.231-2.268-.815-3.765-1.27-2.035-.617-3.922-1.024-3.25-.251z" opacity=".064"/><path d="M38.036 19.999l-.006-.004s-2.142-.749-4.133-1.348-3.829-1.047-3.223-.444c.88.874 2.701 1.465 4.631 2.104s3.967 1.327 5.279 2.396a105.718 105.718 0 00-2.548-2.704z" opacity=".07"/></g><g opacity=".2"><path d="M12.604 17.357l-.012.007c-1.474 1.445-3.827 3.805-5.701 5.926 2.628-2.138 13.038-2.077 14.53-5.295 2.101-4.526-8.817-.638-8.817-.638z" opacity=".011"/><path d="M12.502 17.457l-.01.006c-1.434 1.408-3.678 3.661-5.485 5.7 2.628-2.138 12.635-2.099 14.136-5.164 2.029-4.143-8.641-.542-8.641-.542z" opacity=".018"/><path d="M12.4 17.557l-.009.005c-1.394 1.371-3.529 3.517-5.27 5.473 2.627-2.138 12.229-2.121 13.742-5.033 1.954-3.761-8.463-.445-8.463-.445z" opacity=".024"/><path d="M12.299 17.657l-.008.005c-1.355 1.334-3.38 3.373-5.055 5.247 2.627-2.138 11.82-2.143 13.347-4.902 1.872-3.383-8.284-.35-8.284-.35z" opacity=".031"/><path d="M12.197 17.757l-.006.004c-1.315 1.297-3.232 3.229-4.839 5.021 2.627-2.138 11.407-2.165 12.953-4.771 1.782-3.006-8.108-.254-8.108-.254z" opacity=".037"/><path d="M12.095 17.857l-.005.003c-1.276 1.26-3.083 3.085-4.624 4.794 2.627-2.138 10.989-2.19 12.558-4.639 1.687-2.632-7.929-.158-7.929-.158z" opacity=".044"/><path d="M11.993 17.957l-.004.002c-1.236 1.223-2.934 2.941-4.409 4.568 2.627-2.138 10.565-2.218 12.164-4.508 1.582-2.263-7.751-.062-7.751-.062z" opacity=".05"/><path d="M11.892 18.057l-.003.002a122.364 122.364 0 00-4.193 4.342c2.627-2.137 10.131-2.253 11.77-4.377 1.466-1.902-7.574.033-7.574.033z" opacity=".057"/><path d="M11.79 18.157l-.001.001a126.784 126.784 0 00-3.978 4.115c2.627-2.137 9.684-2.299 11.375-4.246 1.344-1.547-7.396.13-7.396.13z" opacity=".064"/><path d="M11.688 18.257a132.576 132.576 0 00-3.763 3.889c2.627-2.137 9.221-2.366 10.981-4.115 1.214-1.205-7.218.226-7.218.226z" opacity=".07"/></g><g opacity=".2"><path d="M17.998 6l.559-1.405c-2.35 1.045-3.099 2.984-3.099 2.984L17.998 6z" opacity=".033"/><path d="M17.998 6l.505-1.27c-2.27.995-3.046 2.85-3.046 2.85L17.998 6z" opacity=".067"/><path d="M17.998 6l.452-1.136c-2.191.945-2.992 2.716-2.992 2.716L17.998 6z" opacity=".1"/><path d="M17.998 6l.399-1.002c-2.111.895-2.939 2.582-2.939 2.582L17.998 6z" opacity=".133"/><path d="M17.998 6l.345-.868c-2.032.844-2.885 2.447-2.885 2.447L17.998 6z" opacity=".167"/><path d="M17.998 6l.292-.734c-1.952.794-2.832 2.313-2.832 2.313L17.998 6z" opacity=".2"/><path d="M17.998 6l.239-.6c-1.873.744-2.779 2.179-2.779 2.179L17.998 6z" opacity=".233"/><path d="M17.998 6l.185-.465c-1.793.694-2.725 2.045-2.725 2.045L17.998 6z" opacity=".267"/><path d="M17.998 6l.132-.331c-1.714.644-2.672 1.911-2.672 1.911L17.998 6z" opacity=".3"/></g></g><g><linearGradient id="prefix__Y" x1="4.129" x2="8.335" y1="36.655" y2="36.045" gradientUnits="userSpaceOnUse"><stop offset="0" stop-color="#42210b"/><stop offset=".503" stop-color="#8c6239"/><stop offset=".537" stop-color="#855c35"/><stop offset=".736" stop-color="#613c1e"/><stop offset=".896" stop-color="#4a2810"/><stop offset=".999" stop-color="#42210b"/></linearGradient><path fill="url(#prefix__Y)" d="M9.171 46L6.34 26.262l-2.969.426L6.14 46z"/><radialGradient id="prefix__Z" cx="6.225" cy="29.759" r="5.427" gradientUnits="userSpaceOnUse"><stop offset="0" stop-color="#603813"/><stop offset=".987" stop-color="#8c6239" stop-opacity="0"/></radialGradient><path fill="url(#prefix__Z)" d="M9.171 46L6.34 26.262l-2.969.426L6.14 46z"/><circle cx="4.501" cy="24.001" r="4.5" fill="#fff"/><radialGradient id="prefix__aa" cx="46.406" cy="93.769" r="4.5" gradientTransform="matrix(.8003 .5996 -.5416 .7229 18.143 -71.61)" gradientUnits="userSpaceOnUse"><stop offset=".66" stop-color="#e1bee7" stop-opacity=".1"/><stop offset=".744" stop-color="#e1bae8" stop-opacity=".323"/><stop offset=".822" stop-color="#e3afeb" stop-opacity=".529"/><stop offset=".897" stop-color="#e59df1" stop-opacity=".728"/><stop offset=".97" stop-color="#e782f8" stop-opacity=".921"/><stop offset="1" stop-color="#e975fc"/></radialGradient><circle cx="4.501" cy="24.001" r="4.5" fill="url(#prefix__aa)"/><radialGradient id="prefix__ab" cx="45.028" cy="91.205" r="7.395" gradientTransform="rotate(-8.163 -463.393 352.476)" gradientUnits="userSpaceOnUse"><stop offset="0" stop-color="#ea80fc"/><stop offset=".457" stop-color="#e69ef2" stop-opacity=".588"/><stop offset="1" stop-color="#e1bee7" stop-opacity=".1"/></radialGradient><circle cx="4.501" cy="24.001" r="4.5" fill="url(#prefix__ab)"/><radialGradient id="prefix__ac" cx="-227.474" cy="-421.619" r="4.5" fx="-230.933" fy="-421.638" gradientTransform="rotate(55 -539.467 24)" gradientUnits="userSpaceOnUse"><stop offset="0" stop-color="#edf3f7"/><stop offset=".089" stop-color="#f6f9fb" stop-opacity=".856"/><stop offset=".243" stop-color="#fdfefe" stop-opacity=".605"/><stop offset=".616" stop-color="#fff" stop-opacity="0"/></radialGradient><circle cx="4.5" cy="24" r="4.5" fill="url(#prefix__ac)"/><path fill="#fff" d="M6.908 30.222l-2.969.426-1.719-1.999 5.775-.829z"/><linearGradient id="prefix__ad" x1="-21.595" x2="-12.296" y1="12.286" y2="15.968" gradientTransform="matrix(1.1298 -.162 .1065 .7424 23.362 15.973)" gradientUnits="userSpaceOnUse"><stop offset="0" stop-color="#6b3894"/><stop offset=".534" stop-color="#db8cd0" stop-opacity=".5"/><stop offset=".59" stop-color="#ce7fc8" stop-opacity=".44"/><stop offset=".765" stop-color="#aa5cb4" stop-opacity=".251"/><stop offset=".908" stop-color="#9347a7" stop-opacity=".098"/><stop offset=".999" stop-color="#8b3fa2" stop-opacity="0"/></linearGradient><path fill="url(#prefix__ad)" d="M6.908 30.222l-2.969.426-1.719-1.999 5.775-.829z"/><linearGradient id="prefix__ae" x1="-923.881" x2="-914.582" y1="12.286" y2="15.968" gradientTransform="matrix(-1.1298 .162 .1065 .7424 -1035.238 167.797)" gradientUnits="userSpaceOnUse"><stop offset="0" stop-color="#6b3894"/><stop offset=".534" stop-color="#db8cd0" stop-opacity=".5"/><stop offset=".59" stop-color="#ce7fc8" stop-opacity=".44"/><stop offset=".765" stop-color="#aa5cb4" stop-opacity=".251"/><stop offset=".908" stop-color="#9347a7" stop-opacity=".098"/><stop offset=".999" stop-color="#8b3fa2" stop-opacity="0"/></linearGradient><path fill="url(#prefix__ae)" d="M2.22 28.649l1.719 1.999 2.969-.426 1.087-2.402-5.775.829"/><linearGradient id="prefix__af" x1="-919.643" x2="-919.643" y1="12.563" y2="15.527" gradientTransform="matrix(-1.1298 .162 .1065 .7424 -1035.238 167.797)" gradientUnits="userSpaceOnUse"><stop offset="0" stop-color="#9c43aa"/><stop offset=".408" stop-color="#9341a6" stop-opacity=".592"/><stop offset=".999" stop-color="#8b3fa2" stop-opacity="0"/></linearGradient><path fill="url(#prefix__af)" d="M3.939 30.648l2.969-.426 1.087-2.402-5.775.829z"/><radialGradient id="prefix__ag" cx="43.406" cy="97.769" r=".5" gradientTransform="rotate(-8.163 -463.393 352.476)" gradientUnits="userSpaceOnUse"><stop offset="0" stop-color="#efb7e0"/><stop offset="1" stop-color="#db8cd0"/></radialGradient><circle cx="2.099" cy="28.386" r=".5" fill="url(#prefix__ag)"/><radialGradient id="prefix__ah" cx="49.406" cy="97.769" r=".5" gradientTransform="rotate(-8.163 -463.393 352.476)" gradientUnits="userSpaceOnUse"><stop offset="0" stop-color="#efb7e0"/><stop offset="1" stop-color="#db8cd0"/></radialGradient><circle cx="8.038" cy="27.534" r=".5" fill="url(#prefix__ah)"/><linearGradient id="prefix__ai" x1="46.406" x2="46.406" y1="97.269" y2="98.269" gradientTransform="rotate(-8.163 -463.393 352.476)" gradientUnits="userSpaceOnUse"><stop offset="0" stop-color="#db8cd0"/><stop offset=".521" stop-color="#efb7e0"/><stop offset="1" stop-color="#db8cd0"/></linearGradient><path fill="url(#prefix__ai)" d="M7.967 27.039l-5.939.852.071.495.071.495 5.939-.852-.142-.99z"/></g></svg>